<svg xmlns="http://www.w3.org/2000/svg" viewBox="0 0 210 297"><g fill-opacity=".89"><path fill="#08dcb7" fill-rule="evenodd" d="M135.06 25.94c-5.5.48-12.84 2.94-16.85 5.64-1.22.83-2.7 2-4.62 3.66a46.53 46.53 0 0 1-5.06 3.94l-1.4.92h-2.65c-6.1.02-11.3.35-14.6.94-3.6.65-10.4 2.86-10.4 3.38 0 .2.28.14 3.83-.8a69.36 69.36 0 0 1 8.52-1.9c.84-.07.95-.05 1.2.24.4.45.44.82.58 5.58.1 3.32.18 4.49.4 5.45.5 2.34 1.68 5.12 3.5 8.3 1.8 3.13 3.83 6.21 3.97 6.06.05-.04.11-3.7.15-8.12l.07-8.04 1.28 2.22c3.68 6.37 6.12 9.49 9.86 12.62a44.88 44.88 0 0 0 6.23 4.19c1.5.89 3.71 2.23 4.9 3 1.19.75 2.24 1.37 2.33 1.37.72 0-.1-2.38-2.53-7.44-1.98-4.12-3.77-6.74-6.4-9.37-2.64-2.65-5.54-4.72-10.3-7.38a54.73 54.73 0 0 1-6.44-4.03c-1.87-1.4-5.25-4.38-5.25-4.64 0-.43.73-.53 4.32-.6 5.2-.09 12.1.35 15.65.99 1.87.33 3.17.94 4.87 2.28 2.84 2.23 6.28 6.55 8.25 10.37.74 1.42 1.8 4.26 3.22 8.57 2.73 8.32 4.13 11.05 7.38 14.48 2.44 2.58 5.88 5.24 7.17 5.56.62.15.59.04-1.23-4.38-.38-.91-.94-2.52-1.25-3.57-1.25-4.2-1.57-5.13-2.4-6.85-1.4-2.9-2.66-4.54-7.86-10.16a46.98 46.98 0 0 1-5.43-6.87c-2.48-3.72-4.45-6.08-6.35-7.59-.6-.47-1-.85-.93-.85.09 0 1.15.22 2.36.5 5.03 1.15 5.34 1.32 8.35 4.43a45.36 45.36 0 0 1 7.5 9.88l2.15 3.65a36.56 36.56 0 0 0 4.53 6.15l1.83 2.08.31 3.29c.56 5.87.98 7.76 2.34 10.5a22.4 22.4 0 0 0 3.3 4.85 37.4 37.4 0 0 0 7.67 6.8c1.72 1.08 1.91.9.83-.76-2.66-4.11-3.19-5.1-4.68-8.8-1.78-4.41-2.26-5.24-5.15-8.94-2.24-2.86-3.83-5.42-3.72-5.97.03-.15.58.2 1.9 1.23a46.31 46.31 0 0 0 11.19 6.71c1.88.8 2.37.96 2.37.74 0-.25-.75-1.33-1.96-2.83a110.24 110.24 0 0 1-4.83-6.65c-2.89-4.3-6.76-8.5-9.85-10.7a6.18 6.18 0 0 1-2.62-3.19c-1-2.16-1.81-3.38-4.03-6.02-.44-.52-.76-.99-.71-1.04.04-.05 1.08.35 2.3.88 5.96 2.63 8.62 4.35 12.5 8.03 3.58 3.4 4.9 5.33 8.46 12.3 3.03 5.93 5.08 9.45 6.92 11.88 2.2 2.89 6.03 6.31 8.74 7.8 1.59.87 1.42.25-.78-3.01-1.77-2.62-2.48-3.92-5.41-9.95-4.69-9.64-5.62-11.16-9-14.63a8.61 8.61 0 0 1-1.4-1.6c.24-.01 4.41 2.94 5.7 4.02 2.4 2 4.71 4.84 9.87 12.08 1.46 2.06 3.11 4.31 3.67 5.01a42.2 42.2 0 0 0 5.27 5.35c1.55 1.27 6.9 5.01 7.15 5.01.35 0 .18-.75-.58-2.7-2.97-7.58-5.66-11.87-9.82-15.65-2.95-2.68-6.45-5.2-11.43-8.23a472.34 472.34 0 0 1-7.47-4.68 141.8 141.8 0 0 0-12.7-7.4 118.57 118.57 0 0 0-9.65-4.71 26.53 26.53 0 0 1-2.44-1.13c-.15-.16.16-.3 1.8-.8 2.3-.7 3.8-.95 5.11-.86 3.33.23 7.5 1.93 14.07 5.72 6.16 3.56 10.1 5.27 14.32 6.2 1.77.4 1.81.4 7.02.39 3.04 0 5.9-.08 6.82-.18 2.73-.3 2.72-.38-.16-1.54a64.9 64.9 0 0 1-10.47-5.72 48.14 48.14 0 0 0-7.5-4.13 36.65 36.65 0 0 0-6.84-2.16c-1.85-.32-7.36-.55-10.94-.45-5.47.14-8.57.78-12.95 2.66l-1.32.56-1.6-.57c-4.77-1.7-9.75-3.19-13.77-4.12-4.1-.95-9.75-1.9-12.94-2.15-.97-.07-1.79-.17-1.83-.22-.17-.18.38-.52 1.85-1.14a44.93 44.93 0 0 1 6.02-2.03c1.66-.37 7.83-.43 12.5-.11 8.51.57 13.4.2 17.57-1.33 2.47-.9 4.57-2.17 9.47-5.73 2.08-1.5 2.57-1.96 2.34-2.2-.1-.1-1.36-.2-3.5-.28a52.8 52.8 0 0 1-8.3-.8c-4.75-.77-8.53-1.02-11.48-.77m6.62 1.16c1.67.14 5 .65 6.55 1 .5.11.67.2.54.29-.1.07-3.2.13-6.87.13-7.06 0-8.56.1-10.78.71l-1.02.28 1.16-.06a127 127 0 0 0 2.78-.21c1.84-.16 15.03-.21 15.8-.06.7.14.35.28-1.33.54-2.13.33-4.86.61-9.91 1.01-5.35.43-7.8.7-9.86 1.09a34.68 34.68 0 0 0-4.66 1.2c-.1.1.45.03 3.03-.43 2.63-.47 4.83-.72 9.1-1.06 7.73-.62 13.87-1.38 16.86-2.09 1.67-.4 1.7-.4 1.7-.23 0 .32-2.4 1.38-5.03 2.22-1.9.6-3.87.96-8.43 1.53-3.98.5-4.4.57-4.25.7.19.19 7.31-.32 9.08-.64l.4-.08-.48.29c-.97.56-3.17.97-7.53 1.4-2.66.25-13.38.42-12.9.2.17-.08 1.6-.27 3.2-.44 1.6-.17 2.93-.34 2.97-.39.21-.24-4.36.2-9.1.88-4.74.69-4.85.7-4.7.55.08-.08.75-.39 1.5-.69.75-.3 1.29-.57 1.2-.6-.2-.07-1.36.25-3.75 1.04-3.33 1.1-3.17.73.51-1.15a54.35 54.35 0 0 1 6.5-2.89c.77-.27 1.44-.55 1.5-.6.34-.35-3.78.73-5.42 1.42-1.16.48-1.4.53-1.15.21.97-1.23 10.3-4.62 13.97-5.07 1.38-.18 6.85-.18 8.82 0m9.96 5.02c-.63.58-3.92 2.26-5.68 2.9a21.5 21.5 0 0 1-5.79 1.22c-2.19.19-8.08.2-9.53.02-.6-.08-2.03-.22-3.19-.32-2.87-.24-2.13-.37 2.31-.39 7.12-.03 12.89-.59 16-1.53.6-.19 2.2-.79 3.52-1.34 1.34-.55 2.52-1 2.63-1 .13 0 .02.18-.27.44m-93.7 9.81c-.99.56-3.44 2.62-7.4 6.21-4.88 4.41-7.14 7.15-10 12.09a79.37 79.37 0 0 0-4.31 9.22l-1.67 4.5a68.02 68.02 0 0 1-3.84 8.45c-3.38 5.79-4.82 8.57-6.74 13-.82 1.88-1 1.44-.77-2 .26-4.11.7-6.58 2.13-12.05 2.7-10.38 3.02-12 3.14-16.12.08-3.06-.12-5.46-.78-9.6s-1.56-8.04-1.96-8.48c-.21-.23-.28.2-.49 3.09a45.78 45.78 0 0 1-2.51 12.34c-4.34 13.39-4.22 12.92-4.42 16.65-.2 3.7.14 7.53.98 11.05a27.65 27.65 0 0 0 2.35 6.44l.98 2-.73 2c-2.6 7.14-5.16 16.95-6.84 26.34-.38 2.11-.52 2.55-.75 2.36-.21-.19-1.27-3.52-1.75-5.51-.62-2.56-.65-3.08-.55-11.31.15-12.06-.01-13.11-3.31-22.25A27.9 27.9 0 0 1 7 83.91c-.35-2.26-.65-2.2-1.6.27-.71 1.9-2.6 7.87-2.96 9.38a46.04 46.04 0 0 0-.99 6.58c-.33 4.39.42 9.11 2.2 13.84 1.07 2.82 2.42 5.1 5.45 9.2 4.51 6.11 4.95 7.2 5.21 12.95.14 3.05.47 6.14.9 8.37 1.4 7.36 3.43 15.57 3.94 15.9.18.12.16-.05-.3-2.2-.85-4-1.89-9.5-1.89-9.98 0-.43.16-.67 1.06-1.66a36.86 36.86 0 0 1 7.03-5.8c2.12-1.33 3.75-1.74 9.04-2.27 3.95-.39 6.76-.96 9.37-1.9 5.13-1.86 8.16-3.91 11.65-7.9 2.64-3.02 5.07-6.16 5.07-6.55 0-.33-.43-.18-1.55.52-3.7 2.35-6.57 3.28-14.04 4.59-4.2.73-5.79 1.08-7.36 1.6-.7.24-1.3.4-1.32.38-.03-.04.6-1.5 1.42-3.27a95.5 95.5 0 0 0 3.68-8.79l1.39-3.91c.41-1.19.66-2.08.63-2.36l-.04-.45-.55.62c-.7.81-2.68 2.62-5.57 5.09-4.53 3.88-6.48 5.88-8.47 8.7-1.82 2.58-2.97 4.66-6.23 11.27-3.67 7.42-5.05 9.88-5.55 9.88-.91 0-1.43-10.66-.8-16.6.32-3.1.98-5.35 2.43-8.28 2.73-5.5 6.25-8.02 14.8-10.61 1.3-.4 2.9-.91 3.57-1.16a20.74 20.74 0 0 0 7.52-4.7c2.48-2.64 8.16-10.69 8.16-11.59 0-.33-.03-.34-.72-.26-1.29.14-4.9 1.56-7.77 3.03-3.42 1.76-5.5 3.4-9.38 7.38a52.87 52.87 0 0 1-7.34 6.5c-3.74 2.76-5.88 4.84-7.94 7.7-1 1.4-1.3 1.67-1.17 1.07.97-4.51 1.05-4.7 2.43-6.22 1.26-1.39 3.54-3.24 7.7-6.26 5.28-3.85 6.96-5.24 9.45-7.87a36.41 36.41 0 0 0 4.7-6.05c.9-1.42.95-1.47 1.45-1.47 1.2 0 4.68-.3 5.75-.5 2.25-.4 4.41-1.25 7.91-3.1a28.14 28.14 0 0 0 7.1-4.9 72.7 72.7 0 0 0 4.85-4.86l.43-.57-.4.11c-.22.06-1.83.68-3.57 1.38a146.67 146.67 0 0 1-11.3 4.07c-3.98 1.26-5.84 1.93-7.2 2.59-.55.27-1.02.49-1.05.49-.08 0 .46-1.36 1.69-4.15 1.52-3.48 1.89-4.54 1.69-4.76-.2-.2-.63.12-2.97 2.13-5.49 4.71-9.02 8.24-10.65 10.64-1.58 2.32-2.12 2.83-3.8 3.56a31.65 31.65 0 0 0-6.02 3.63 23.3 23.3 0 0 1-1.69 1.21c-.24.1-.2-.02 1.18-3.1 2.14-4.78 2.75-5.7 6.7-10.18 3.98-4.5 6.9-6.85 13.96-11.22 1.76-1.08 4-2.5 4.98-3.17 2.07-1.38 3.07-1.9 3.67-1.9.6-.01 3.34-.76 4.46-1.23 1.14-.48 2.25-1.2 6.42-4.13 3.74-2.63 5.19-3.42 7.88-4.32 2.11-.7 2.76-.98 2.76-1.2 0-.74-4.85-1.32-8.5-1.02-1.2.1-2.3.28-3.02.5-.6.18-1.14.3-1.17.27-.09-.1.17-.81.93-2.62 1.23-2.94 2.34-6.55 2.6-8.48.18-1.4-.28-2.27-.6-1.13-.43 1.49-3.99 6.28-7.28 9.78-1.6 1.7-4.37 4.25-8.32 7.63-6.66 5.72-9 7.85-12.6 11.45a32.45 32.45 0 0 1-2.39 2.28c-.11-.12 3.5-4.75 9.76-12.51 4.94-6.12 6.71-8.68 8.68-12.52.98-1.9 4.1-8.73 4.1-8.95 0-.2-.27-.17-.74.1m37.94 2.44c.65.75 2.22 4.17 2.96 6.47.34 1.06.66 1.96.7 2 .14.13-.08-1.22-.51-3.2a13.37 13.37 0 0 1-.35-2.14c.08-.51 1.4 2.54 1.65 3.83.3 1.53.42 5.24.23 7.15-.16 1.6-.24 1.92-.43 1.72-.06-.07-.51-1.73-1-3.7-.96-3.9-2.06-7.6-2.6-8.73-.31-.67-.33-.68-.25-.21.04.27.44 1.85.89 3.5 1.05 3.9 2.7 10.7 2.69 11.12 0 .54-.17.12-1.08-2.82-.95-3.04-1.63-4.98-1.72-4.9-.03.04.29 1.37.7 2.96.42 1.6.73 2.93.7 2.97-.13.13-.88-1.76-1.86-4.6-1.58-4.63-1.64-4.23-.12.76.98 3.18 1.1 3.76.71 3.24a31.84 31.84 0 0 1-2-4.55c-.68-1.92-.8-3.12-.69-6.87.06-1.71.12-3.1.14-3.07.03.03.32 1.13.67 2.46.6 2.31 1.04 3.66 1.22 3.66.05 0 .06-.05.02-.11-.1-.16-1.44-5.53-1.44-5.74 0-.09.09-.16.2-.16.11 0 .2-.02.2-.04l-.19-.78c-.23-.91-.09-.96.56-.22m-39.8 1.58c-2.21 5.64-4.28 8.9-10.24 16.13l-4.08 5.01c-2.45 3.06-2.69 3.3-2.38 2.46.11-.31.1-.34-.15-.28-.25.07-.23 0 .14-.7.48-.89.52-1.05.21-.92-.3.12-.17-.26.78-2.27.45-.94.88-1.87.95-2.07.52-1.46-1.55 2.3-3.97 7.17-1.65 3.35-2.03 4-2.03 3.5 0-.36 1.1-3.22 2.4-6.23a53.5 53.5 0 0 1 6.63-11.75 62.88 62.88 0 0 1 5.04-5.48c.22-.12.24-.11.11.05a169.1 169.1 0 0 0-5.26 7.83c-.32.58.26-.13 2.05-2.5 3.19-4.24 7.64-9.55 7.84-9.34a4.8 4.8 0 0 1-.43 1.78 66.8 66.8 0 0 1-3.68 5.72 17.58 17.58 0 0 0-1.44 2.2c.1.12 1.08-.94 2.16-2.34a45.9 45.9 0 0 0 3.75-5.8c1.4-2.67 1.92-3.57 2.04-3.57.06 0-.13.63-.43 1.4m106.51-.68c3.33.6 5.51 1.25 8.27 2.5 2.25 1 6.19 3.06 6.19 3.23 0 .19-.2.12-2.25-.73-2.55-1.06-5.95-2.15-6.13-1.96-.06.07.63.37 3.14 1.33 2.5.96 7.67 3.36 11.43 5.3 2 1.04 2.66 1.49 2.2 1.49-.74 0-9.59-3.05-15.2-5.23-6.11-2.38-11.06-4.15-12.36-4.42-.65-.14-.28.12.62.43.37.13 4 1.54 8.08 3.14 8.96 3.5 10.39 4.04 14.75 5.45 1.87.6 3.44 1.15 3.5 1.2.47.44-8.34-.96-10.84-1.72-2.1-.63-1.7-.15.48.57 1.73.58 3.93 1.09 6.2 1.44 1.02.16 1.9.32 1.93.36.12.13-3.3.07-4.8-.08-3.94-.4-8.53-2-13.4-4.67-2.13-1.18-4.48-2.64-4.48-2.8 0-.06.03-.11.05-.11.03 0 2.3.9 5.05 2a91.1 91.1 0 0 0 5.05 1.95c.15-.15-1.4-.91-4.66-2.3-4.37-1.83-9-3.7-10.5-4.24-1.4-.5-1.65-.69-1.24-.91.24-.14.05-.22-1.37-.58-2.43-.62-2.5-.78-.33-.78 2.85 0 5.9.34 10 1.14 1.15.22 2.34.44 2.64.48l.54.08-.5-.2c-.28-.11-1.46-.48-2.62-.8a11.2 11.2 0 0 1-2.1-.73c0-.2.95-.14 2.66.17m-26.51 2.4c1.56.8 2.56 1.54 3.76 2.8a43.22 43.22 0 0 1 4.17 5.59c.86 1.4.78 1.64-.36 1.01a61.7 61.7 0 0 1-5.67-4c-1.97-1.62-7.14-6.9-7.14-7.28 0-.15 4.18 1.35 5.24 1.89m-83.56 1.25a125.37 125.37 0 0 0-7.12 9.57c-1.7 2.5-4.48 6.9-5.08 8-.41.78-.42.83-.15.74.41-.14.38.15-.11.92-.57.9-.51 1.02.1.2 1.13-1.52 6.1-8.87 6.34-9.36.22-.46-.68.75-2.2 2.94-2.27 3.3-3.58 5.08-3.71 5.08-.65 0 4.7-8.1 10.1-15.28 2.59-3.43 2.72-3.62 2.67-3.68-.03-.03-.4.36-.84.87m52.9 2.72c2.46 1.85 4.44 3.2 4.69 3.2.26-.01-.96-1.06-2.87-2.47a26.62 26.62 0 0 1-2.22-1.75c-.3-.34-.3-.36-.05-.36.14 0 .32.06.4.14.06.07 1.4.87 2.97 1.8a64 64 0 0 1 4.01 2.5 37.19 37.19 0 0 1 9.3 10.08c1.58 2.48 1.05 2.14-.98-.63-1.8-2.45-4.39-5.23-5.85-6.27-2.01-1.44-2-1.4.04.55a52.43 52.43 0 0 1 8.97 11.76c.65 1.18.14.74-1.1-.93-3.16-4.3-6.96-8.21-10.12-10.4-1-.7-1.07-.77 1.8 1.94.94.9 2.45 2.43 3.36 3.41 2.56 2.8 6.3 7.55 6.1 7.76-.05.04-1-.81-2.1-1.9-2.87-2.83-5.97-5.64-6.23-5.64-.07 0 .8.97 1.91 2.15a23.47 23.47 0 0 1 1.92 2.15c-.29 0-7.43-6.55-10.38-9.51-.72-.71-1.23-1.17-1.15-1.01.3.6 2.65 3.07 5.97 6.32a51.3 51.3 0 0 1 3.38 3.45c-.1.1-.91-.48-2.86-2.03a40.55 40.55 0 0 1-9.13-10.7c-1.74-3.14-1.84-3.19 1.98.9 3.4 3.67 5.53 5.78 4.58 4.56-.21-.27-1.82-2.07-3.57-3.99a67.26 67.26 0 0 1-3.17-3.61c0-.24.43.1 2.03 1.57.86.79 1.6 1.4 1.63 1.36.07-.07-.8-.98-4.07-4.24-1.08-1.08-1.88-1.96-1.77-1.96.12 0 1.28.8 2.59 1.8M63.05 54.6c-1.38 2.98-1.91 3.9-3.22 5.44a66.74 66.74 0 0 1-6.14 6.05c-1.67 1.35-9.58 5.89-10 5.74-.09-.03.23-.38.71-.76a22 22 0 0 0 1.5-1.33l.61-.61-.47.24c-.52.26-1.78 1.17-4.2 3.03a9.16 9.16 0 0 1-1.63 1.11c-.2-.22 3.02-3.17 8.39-7.7 2.06-1.73 4.73-4 5.93-5.03 2.68-2.32 3.2-2.73 3.2-2.54 0 .08-1.06 1.2-2.35 2.48-3.83 3.83-4.79 4.83-4.72 4.9.26.27 3.88-3.17 8.05-7.62a99.08 99.08 0 0 1 3.36-3.51c0 .17-2.08 3.29-2.9 4.35a49.3 49.3 0 0 1-8.31 8.18c-1 .8-1.83 1.47-1.83 1.5 0 .25 2.58-1.68 5.1-3.8 3.3-2.79 4.63-4.38 7.83-9.36a31.7 31.7 0 0 1 1.98-2.9c.04.04-.36 1-.89 2.14m77.67 1.33c1.13.77 3 2 4.14 2.74a33.54 33.54 0 0 1 7.95 6.72c2.17 2.53 2.04 2.72-.34.51-2.61-2.4-5.93-5.02-5.54-4.36a70.6 70.6 0 0 0 2.9 2.62c3.92 3.4 6.7 6.39 8.98 9.6 1.84 2.6 2.22 3.24 1.72 2.83-.55-.43-2.26-2.02-5.1-4.73a441.8 441.8 0 0 0-6.24-5.85c-4.51-4.15-7.5-7.04-8.62-8.36a6.84 6.84 0 0 1-.88-1.16c.03-.03.78.43 1.68 1.02 1.67 1.09 2.65 1.67 2.65 1.56 0-.03-.96-.76-2.13-1.61-1.93-1.4-3.96-3.18-3.44-3.01.11.03 1.13.7 2.27 1.48m-113.27 2.8c.1.97.18 3.4.18 5.42 0 3.19-.04 3.86-.31 5.36-.8 4.43-3.36 14.05-3.53 13.22-.03-.13.32-1.87.76-3.86 1.2-5.37 1.54-7.4 1.5-9.21 0-.63-.02-.66-.11-.29a758.9 758.9 0 0 0-2.79 13.95c-.49 2.64-.65 3.16-.84 2.64-.22-.6-.3.5-.22 3.52.08 3.3-.02 5.06-.28 4.97-.09-.03-.3-.6-.46-1.26-.58-2.3-.73-3.86-.8-8.44-.04-2.4-.1-4.46-.15-4.58-.14-.39-.43 1.48-.6 3.84-.1 1.54-.21 2.31-.31 2.27-.08-.02-.2-.33-.24-.68-.15-1.02-.13-6.1.04-8.1.18-2.2.5-3.37 2.8-10.36 1.52-4.57 2.13-6.53 2.68-8.6.27-1.02.48-1.2.48-.4 0 1.35-1.02 5.3-2.7 10.48-.46 1.4-1.01 3.3-1.24 4.22-.4 1.6-.68 3.64-.49 3.45.05-.04.42-1.24.83-2.64C23 68.9 25.1 62.64 25.23 62.99c.08.26-.15 1.42-1.27 6.38-.55 2.44-1.15 5.27-1.34 6.3-.32 1.74-.71 5.33-.6 5.45.04.03.14-.38.23-.91s.71-3.35 1.39-6.26c1.5-6.54 1.97-8.96 2.15-11.16.16-1.82.23-2.22.4-2.22.22 0 .29.44.29 1.78 0 .73.04 1.74.09 2.24.08.86.1.89.23.49.08-.25.15-2.13.16-4.37l.05-4.15c.06-.54.28.54.44 2.17M72.9 56.8a8 8 0 0 1-1.5.28c-.78.1-1.56.26-1.74.33-.29.11-.26.14.27.23.32.06.54.15.48.2a26 26 0 0 1-1.94.8c-2.86 1.06-6.67 2.79-6.67 3.02 0 .17.84-.1 3.2-1.02a19.3 19.3 0 0 1 2.55-.9c.08.04-.37.48-1 1s-1.46 1.3-1.85 1.72c-1.16 1.27-5.6 3.84-7.45 4.32-1.53.4-1.7.41-1.7.2 0-.59 1.55-1.52 3.84-2.32 1.77-.61 3.09-1.2 2.71-1.22-.09 0-.87.22-1.74.5-.86.27-1.62.5-1.7.5-.37 0 .02-.68 1.24-2.1 1.46-1.72 2.1-2.25 3.43-2.82 3.21-1.4 3.05-1.31 2.59-1.36a7.42 7.42 0 0 0-1.75.33c-1.7.47-1.88.46-1.28-.09.9-.82 2.1-1.3 3.87-1.53 1.11-.15 6.27-.21 6.14-.07m27.27 1.12c0 .4.02.54.05.32.03-.22.03-.54 0-.72-.03-.17-.06 0-.06.4m60.53 4.2a99.45 99.45 0 0 1 6.7 8.94c1.56 2.27.67.27-1.29-2.91-.66-1.08-2.82-4.2-4.04-5.83-.08-.11-.08-.18 0-.18.21 0 1.8 1.58 2.86 2.86 1.97 2.38 3.28 4.69 7.4 13.11a143.9 143.9 0 0 0 2.94 5.75c.46.79.83 1.52.83 1.6 0 1-2.92-3.62-5.3-8.36-.94-1.85-1.61-2.92-1.62-2.58 0 .25 1.58 3.6 2.39 5.06a44.81 44.81 0 0 0 5.05 7.38c.47.53.82 1.01.79 1.05-.12.13-1.06-.75-2.6-2.42-3.08-3.33-5.13-6.53-7.95-12.42a22.77 22.77 0 0 0-1.31-2.53c-.11.11 1.12 3 2.33 5.48a49.8 49.8 0 0 0 2.7 4.95c.54.89.5 1.11-.06.36a67.15 67.15 0 0 1-4.8-7.9 285.2 285.2 0 0 1-4.3-8.58c0-.04.47.41 1.04 1.02.9.97 1 1.04.73.54a56.18 56.18 0 0 0-2.36-3.34 410.67 410.67 0 0 1-2.33-3.15c-.46-.66 1.24.96 2.2 2.1m-24.95-.16c2.54 2.83 4.17 5.16 5.15 7.37.76 1.72 2.42 7.46 2.27 7.89-.06.2-1.3-2.38-2.26-4.7-1.08-2.64-2.58-5.5-2.89-5.5-.13-.01.16.7 1.73 4.14 2 4.4 2.7 6.23 2.24 5.94-.23-.15-.15.06.34.94 1.03 1.87-.13.6-2.92-3.16-2.42-3.26-2.64-3.52-2.04-2.36a47.7 47.7 0 0 0 3.88 5.84c.57.7 1 1.3.96 1.35-.25.26-3.34-3-4.72-4.97a25.64 25.64 0 0 1-3.25-6.26c-1.01-2.73-2.05-5.92-2-6.11.04-.08.41.56.84 1.42 1.47 2.9 1.87 3.67 1.93 3.6a41.9 41.9 0 0 0-1.24-3.17 31.05 31.05 0 0 1-1.26-3.26c.1-.31 2.87 4.5 5.74 9.98 1.88 3.6 3.16 5.8 3.36 5.8.19 0 .12-.3-.15-.7-.14-.2-1.25-2.28-2.47-4.6-1.2-2.32-2.99-5.6-3.95-7.28a52.15 52.15 0 0 1-1.75-3.2c0-.08.62.48 1.38 1.25 2 2.02 1.97 1.68-.07-.86-.57-.7-1.03-1.34-1.03-1.4 0-.22 1.03.74 2.18 2.01m10.17 3.33c1.35 1.43 1.3 1.35-1.06-1.62a21.29 21.29 0 0 1-1.73-2.35c.04-.04.55.37 1.13.92.59.55 2.59 2.38 4.46 4.06 3.1 2.8 7.12 6.52 8.83 8.2.38.36.61.66.53.66-.09 0-1.56-.97-3.27-2.16-1.7-1.2-3.35-2.33-3.65-2.52l-.54-.36.48.54c.53.59 3.42 2.9 5.1 4.08 1.44 1.02 2.68 2.01 2.6 2.1-.2.2-4.12-2.3-6.32-4.02a51 51 0 0 1-8.3-8.17 31.55 31.55 0 0 1-2.54-3.9c-.04-.14.65.55 1.53 1.53.88.99 2.12 2.34 2.75 3.01m28.32 2.67c.75.4 2.01 1.35 3.47 2.58.76.65 1.42 1.2 1.44 1.2.03 0 .02-.14-.02-.3-.04-.15-.04-.28 0-.28.26 0 4.05 3.36 5.68 5.04 1.38 1.43 4 5.46 5.51 8.51.63 1.26.74 1.7.4 1.57-.29-.12-.26.03.13.7.55.94.35 1.65-.3 1.03-.5-.48-.64-.22-.19.38.24.3.4.59.36.63-.15.15-3.26-2.28-5.15-4.03-1.26-1.17-2.46-2.59-5.04-5.99-2.02-2.64-3.12-4.26-3-4.39.04-.04.66.53 1.38 1.28 1.03 1.06.66.58-1.71-2.3-3.38-4.09-4.17-5.11-4.03-5.26.2-.2 9.86 10.33 14.65 16 2.87 3.38 3.74 4.21 1.89 1.8-1.76-2.3-4.84-5.8-11.33-12.86a154.6 154.6 0 0 1-4.73-5.27c-.18-.35 0-.36.6-.04M49.45 69.85c-.17.14-1.49.95-2.92 1.8-5.59 3.34-7.34 4.53-10.1 6.88-1.36 1.17-1.97 1.5-1.26.7a48.3 48.3 0 0 1 5.22-4.42c3.06-2.13 10.8-6.37 9.06-4.96m130.58 2.81c.18.2.35.33.39.29.09-.1-.4-.65-.57-.65-.07 0 .01.17.18.36m-28.68 4.87c.75 1.06 1.4 1.93 1.45 1.93.04 0-.12-.36-.36-.8-.24-.43-.39-.84-.34-.9.36-.36 4.15 6.05 4.15 7.02 0 .44-.2.22-1.22-1.38a17.87 17.87 0 0 0-1.16-1.66c-.58-.5.11.98 1.69 3.65a13.2 13.2 0 0 1 1.03 1.92c-.15.16-.75-.63-2.18-2.91-2.82-4.51-5.32-9.38-4.55-8.88.06.04.74.95 1.49 2.01m-1.49.65c.63 1.81 1.63 4.19 1.73 4.09.03-.03-.2-.7-.5-1.5-.59-1.56-.7-2.1-.35-1.73.1.11.78 1.3 1.5 2.64a53.82 53.82 0 0 0 4.65 7.26c1.81 2.54 2.08 2.97 1.85 2.97-.15 0-1.82-1.8-3.5-3.8-.74-.86-1.46-1.7-1.61-1.85-.61-.65.34.88 1.33 2.15 1 1.26 1.52 2.07 1.34 2.07-.21 0-1.43-1.07-1.99-1.75a26.26 26.26 0 0 1-4.92-9.62c-.77-3.23-.5-3.75.47-.93m34.36-.62a65.74 65.74 0 0 1 4.3 5.83c.68 1.01 1.37 2 1.54 2.21l.31.37-.3-.64c-.83-1.81-6.14-8.88-6.66-8.88-.08 0 .29.5.8 1.11m-116.64.61c-.24.42-5.14 2.72-9.03 4.25-3.68 1.44-4.51 1.78-4.45 1.85.2.22 6.75-2.12 9.1-3.25.8-.39 1.53-.7 1.63-.7.42 0-2.51 1.96-5.94 3.98-2.3 1.35-2.9 1.74-2.24 1.48a45.1 45.1 0 0 0 5.02-2.73l2.1-1.3-.74.73c-2.83 2.76-9.8 6.06-14.6 6.92-1.78.32-3.37.24-3.79-.2-.32-.34.98-1.36 3.92-3.06 3.08-1.78 2.55-1.72-1.16.14-1.68.84-2.12 1-2.15.83-.02-.13.06-.35.18-.5.35-.4 2.12-1.32 3.8-1.98 1.44-.55 2.13-.78 7.55-2.46 2.82-.87 5.1-1.75 8.15-3.12 2.14-.97 2.84-1.2 2.65-.88m-22.21 2.97c-2.6 2.54-6 6.16-6.7 7.13-.89 1.23-2.03 3.35-1.8 3.35.03 0 .32-.4.63-.89 1-1.56 2.16-2.99 4.12-5.06 1.87-1.98 3.3-3.29 3.44-3.14.12.12-.52 1.04-4.06 5.83-6.61 8.92-9.64 12.7-11.04 13.75-.55.41-.48.3 2.09-3.17 2.06-2.79 3.26-4.6 3.26-4.92 0-.38-.77.43-2.47 2.6-.28.36-.54.61-.58.57-.17-.18 3.55-6.2 5.04-8.14a51.62 51.62 0 0 1 4.73-5.25A73.98 73.98 0 0 1 47 79.47c.03 0-.7.75-1.63 1.67m139.04 1.34c.8.96 3.73 3.93 4.71 4.78.25.22.48.36.52.31.18-.18-5.6-6.1-5.96-6.1-.07 0 .26.45.73 1.01M45.38 85.16a64.28 64.28 0 0 1-5.36 8.72c-1.9 2.4-5.14 5.78-5.33 5.58-.04-.04.74-1 1.73-2.13 1-1.14 1.93-2.22 2.08-2.41l.27-.34-.44.32a58.5 58.5 0 0 0-2.88 2.81 55.54 55.54 0 0 1-2.52 2.5c-.14 0 .07-.3.88-1.29 1.16-1.4 2.68-3.43 5.44-7.22 5.76-7.94 6.49-8.68 3.17-3.23-1.38 2.28-1.86 3.15-1.78 3.24.18.18 1.6-1.91 4.08-6.04 1-1.65 1.32-1.9.66-.51m6.5.97c-4.11 1.66-6.79 2.82-6.79 2.93 0 .6 6.78-.83 7.82-1.65.44-.35.01-.27-1.91.34-1.8.56-3.46.91-3.46.72 0-.06.47-.32 1.05-.57 2-.86 4.8-2.2 4.87-2.31.04-.07.06-.11.03-.1l-1.6.64M7.36 90.98c.2 1.02.84 4.98 1.44 8.8 1.08 6.76 1.32 8.1 1.44 7.98.09-.09-.4-4.04-1.17-9.67-.38-2.7-.66-4.99-.63-5.08.05-.18.86 2.1 1.46 4.12a41.72 41.72 0 0 1 1.23 6.44 77 77 0 0 1-.13 9.24l-.1.78-.23-.86c-.36-1.28-.49-1.54-.43-.86l.2 2.5.22 2.66c.13 1.12-.15.61-.47-.86-.15-.71-.53-2.67-.83-4.37-.53-3-.92-4.67-1.04-4.54-.13.13.77 6.56 1.38 9.88.79 4.32-.01 2.51-1.44-3.23-.46-1.84-1.47-7.61-1.89-10.77-.42-3.22-.68-6.11-.81-9.15-.13-2.83-.06-4.24.2-4.33.22-.07.28.27.53 2.82.45 4.55 1.39 11.69 1.59 12.02.21.36.02-2.98-.49-8.23-.61-6.4-.69-7.47-.51-7.3.08.09.3.99.48 2m184.7-1.42c.45.47.61.78.4.78a4.8 4.8 0 0 1-1.27-1.15c0-.29.42-.1.88.37M5.06 93.31c.15 5.69.63 10.44 1.58 15.49.9 4.77 2.38 10.2 3.46 12.66.65 1.5.9 2.22.75 2.22-.23 0-.7-.86-1.77-3.19a61.38 61.38 0 0 1-3.25-8.69c-.32-1.14-.69-2.43-.83-2.86-.24-.75-.25-.76-.26-.29-.02 1.13 1.39 7.4 1.9 8.46.15.3.26.7.26.88 0 .32 0 .32-.22.04-.37-.51-1.9-3.82-2.54-5.51a38.3 38.3 0 0 1-1.8-7.02 38.77 38.77 0 0 1-.06-7.44c.33-2.63 1.5-7.58 1.8-7.58.07 0 .1.1.04.25-.35.94-.42 11.35-.08 12.77.07.28.13.47.14.43.02-.04.1-2.94.21-6.44.18-6.16.25-7.3.48-7.3.05 0 .14 1.4.18 3.12m28.01.32a81.66 81.66 0 0 1-6.2 10.09c-1.35 1.7-6.64 7.37-6.87 7.37-.2 0-.06-.53 1.25-4.65 2.3-7.25 2.81-8.01 7.17-10.75 1.75-1.1 4.7-2.77 4.9-2.78.05 0-.06.33-.25.72m15.71 1.15c-.18.16-.73.52-1.22.8-4.36 2.52-7.64 4.67-7.8 5.13-.05.12-.06.22-.02.22.03 0 .8-.49 1.7-1.08 2.79-1.85 6.7-4.07 6.87-3.9.16.18-10.5 8.86-13 10.6-1.7 1.18-4.08 2.53-4.45 2.53-.36 0-.1-.25 1.19-1.19 2.22-1.6 6.4-5.42 6.2-5.64-.05-.05-.89.5-1.88 1.2l-2 1.4c-.36.21 1.23-1.47 2.78-2.95 2.62-2.5 4.01-3.47 8-5.58 3.15-1.67 4.37-2.18 3.63-1.54m-.89 3.8a66.74 66.74 0 0 1-4.8 5.26 17.82 17.82 0 0 1-4.35 3.19c-1.2.6-6.22 2.37-6.54 2.3-.12-.02 1.2-.77 2.91-1.65 3.49-1.8 6.23-3.47 7.14-4.33.85-.8.33-.63-1.5.51-1.5.94-2.5 1.5-2.66 1.5-.2 0 .58-.77 1.71-1.69 7.35-6 7.34-6 7.34-5.75 0 .08-.48.68-1.05 1.33-1.36 1.51-1.6 1.82-1.45 1.82.07 0 .92-.78 1.89-1.72 1.72-1.7 2.35-2.05 1.36-.78m143.5 9.83c.26 1.21.53 2.35 1.07 4.55a61.8 61.8 0 0 1 1.55 8.1c.08 1.14.07 1.17-.28 1.41-.45.32-2.36.5-5.39.5a36 36 0 0 0-3.4.15c-3.5.45-6.96 2.12-12.57 6.05-2.26 1.6-2.71 1.98-2.49 2.13.1.06 3.53.12 7.62.12 4.1 0 7.45.05 7.44.1 0 .06-.78.6-1.73 1.18-7.84 4.85-11.85 8.95-15.6 15.96-1.44 2.72-2.8 5.17-3.78 6.87-1.03 1.77-1.1 2.17-.36 2.11.7-.06 2.62-.9 5.78-2.54 4.18-2.18 6.2-3.63 8.89-6.4 2.87-2.97 4.9-6.02 7.69-11.56 2.53-5.01 4.18-7.6 7.05-11.05 1.06-1.27 1.34-1.46 1.5-1 .28.77.38 4.6.23 8.76-.32 8.83-.78 12.78-1.72 14.83-1.85 4.05-8.07 9.74-13.08 11.95a89.6 89.6 0 0 1-6.35 2.48c-6.94 2.53-9.78 4.02-12.64 6.63-2.39 2.18-5.98 7.12-6.27 8.61-.09.48-.08.48.33.4.23-.05 1.3-.5 2.37-1 2.33-1.1 3.59-1.6 6.31-2.45 5.69-1.8 7.56-3.07 13.54-9.2 3.31-3.4 4.87-4.8 7.64-6.84a76.33 76.33 0 0 0 2.86-2.2 34.6 34.6 0 0 0 4.5-4.72c.35-.5.64-.88.67-.85.08.09-1.28 6.22-1.56 7-.42 1.17-1.17 2.3-2.54 3.83a49.95 49.95 0 0 1-9.97 8.46l-3.68 2.4a33.05 33.05 0 0 0-5.71 4.7l-1.85 1.86-3.05.32c-5.63.6-7.22.96-9.67 2.25a19.17 19.17 0 0 0-4.47 3.16 38.13 38.13 0 0 0-6.86 8.35c-1.16 2.02-1.08 2.33.34 1.3 4.26-3.05 5-3.48 9.08-5.32 3.78-1.7 4.64-2.26 7.98-5.18 2.85-2.5 5.8-4.46 5.79-3.86 0 .06-.6.94-1.31 1.97a52.35 52.35 0 0 0-6.5 12.1c-.61 1.64-.73 2.14-.5 2.14.2 0 1.13-.72 2.33-1.79a85.15 85.15 0 0 1 6.01-4.9c4.59-3.4 8.3-7.11 10.55-10.54 1.22-1.86 1.56-2.18 3-2.9a23.64 23.64 0 0 0 5.44-3.9c.85-.8 1.57-1.42 1.6-1.39.1.1-1.93 5.09-2.83 6.99a35.44 35.44 0 0 1-6.48 9.57c-3.27 3.55-4.55 4.49-11.65 8.5-9.74 5.5-13.16 8.42-16.97 14.42-1.05 1.66-1.46 2.57-1.26 2.78.14.15 1.33-.59 3.01-1.85 2.52-1.9 3.58-2.55 8.63-5.27 10-5.42 11.83-6.64 14.75-9.9.64-.72 1.3-1.41 1.46-1.53.26-.2.25-.14-.1.5a67.03 67.03 0 0 1-3.4 5.21c-2.18 2.91-4.5 5-12.44 11.26-5.46 4.3-7.43 6.34-10.36 10.69a83.93 83.93 0 0 0-3.5 5.7c0 .52 3.01-.68 7.27-2.89a31.47 31.47 0 0 0 11.31-9.52c2.3-3.03 4-5.7 6.56-10.37.84-1.54 2.75-4.92 4.25-7.52 3.31-5.73 4.42-7.8 6.95-13.09 2.21-4.62 3.64-7.8 4.53-10.09 1.25-3.23 1.42-3.65 1.52-3.65.12 0 .51 1.26 1.06 3.37.32 1.25.36 1.69.36 3.5 0 1.77-.06 2.28-.35 3.43-.81 3.17-2.1 6.23-4.97 11.83-4.75 9.23-6.16 13.68-6.37 19.94-.12 3.7.25 11.54.57 11.87.17.17.5-.48 1.22-2.42.89-2.38 2.78-6.4 4.05-8.59l1.86-3.22c2.64-4.56 4.71-9.88 5.37-13.77.34-2.05.5-6.27.43-11.18-.1-6.68-.48-8.94-2.37-14.09l-.62-1.69 1.17-3.82a123 123 0 0 0 5.37-26.56c.05-.71.16-1.3.24-1.33.35-.12 2.36 5.55 2.83 7.98.55 2.87.6 7.03.13 14.66-.25 4.28-.19 9.76.15 12.15.49 3.41 1.52 6.7 2.83 9.04 1.03 1.83 4.6 7.46 5.2 8.2.35.43.55.57.65.46.08-.09.2-1.78.3-4.2.18-4.29.25-5.04.88-9.33.56-3.84.73-6.29.63-9.3-.13-4.3-.64-7.12-2.15-11.89-1.59-5.05-2.84-7.43-6.3-11.94-2.57-3.37-3.3-4.4-4.27-6.08l-.83-1.43V133c0-7.4-.37-12.1-1.3-16.28-.87-3.97-2.37-8.63-2.76-8.63-.09 0-.12.14-.08.32m-153.66 8.7a92.36 92.36 0 0 0-7.78 9.65c-1.24 1.79-1.66 2.51-1.46 2.51.2 0 1.25-1.26 2.58-3.1 2.7-3.73 8.51-10.4 8.68-9.96.17.47-3.36 6.33-6.26 10.42a176.43 176.43 0 0 1-10.94 13.7c-1.74 1.89-2.37 2.44-2.05 1.8.1-.18 1.31-2.13 2.7-4.34 2.6-4.1 3.76-6.05 3.66-6.15-.1-.1-2.07 2.64-3.46 4.8-1.53 2.37-1.7 2.6-1.79 2.5a26.2 26.2 0 0 1 1.32-2.73c5.4-10.4 7.91-13.83 13.78-18.75a81.94 81.94 0 0 1 2.52-2.07c.03 0-.65.77-1.5 1.72m1.94 1.73a79.24 79.24 0 0 1-5.12 10.65c-1.36 2.15-8.36 9.55-8.7 9.19-.04-.04.36-.57.9-1.17s.94-1.08.9-1.08c-.05 0-.42.32-.84.71-.71.69-1.02.86-1.02.6 0-.07.53-.76 1.17-1.54a141.62 141.62 0 0 0 11.85-16.72 10.7 10.7 0 0 1 1.22-1.84c.02.08-.13.62-.36 1.2m150.06 5.14c.53 0 .93.03.89.07-.04.04-.86.3-1.83.58-2.22.64-3.83 1.2-3.93 1.36-.04.07 0 .1.1.06.28-.1 5.33-1.5 5.44-1.5.06 0 .1.1.1.23 0 .17.09.21.31.15.17-.06.55-.13.85-.19l.55-.09-.41.47c-.84.95-4.06 2.6-7 3.6-.79.26-1.3.5-1.14.52.15.03 1.28-.19 2.5-.47 1.22-.28 2.31-.5 2.43-.46.59.12-2.38 1.52-3.93 1.84-1.04.22-7.04.24-7.68.03-.85-.29-.74-.33 4.38-1.75 3.83-1.06 7.86-2.51 7.44-2.68-.08-.03-1.1.23-2.24.58-5.98 1.81-12.22 3.47-12.22 3.24 0-.06 1.5-.65 3.36-1.3 3.39-1.2 4.87-1.79 4.04-1.63-.22.05-1.5.4-2.83.8-1.34.39-2.46.67-2.5.63-.13-.14 1.81-1.01 4.29-1.94 4.77-1.8 3.8-1.7-1.56.14-1.14.4-2.13.71-2.22.71-.96 0 4.13-2.47 5.84-2.84 1.25-.27 1.49-.28 3.8-.22l3.18.06M55.35 125.9c-.5.45-4.06 2.3-5.75 2.99-1.7.7-2.8.95-7.23 1.72-4.44.76-5.14.95-7.52 2.08-1 .47-1.88.86-1.97.86-.29 0-.16-.27.29-.62 1.24-.96 3.55-2.02 6.75-3.11 1.23-.42 2.17-.79 2.08-.82-.27-.09-3.4.77-5.34 1.46-1.96.7-2.03.72-2.03.52 0-.36 2.51-1.54 4.32-2.02.57-.16 2.58-.5 4.46-.78 1.88-.27 4.14-.62 5.03-.77a8.27 8.27 0 0 1 1.74-.2c.15.1-.65.42-1.83.7-1.47.35-2.85.8-2.85.93 0 .17.12.16 1.33-.1 1.51-.32 4.6-1.4 6.48-2.28 1.9-.87 1.97-.9 2.24-.91.13 0 .05.13-.2.35m-3.89 3.14c-.35.38-2.46 1.26-6.84 2.86-2.32.85-4.4 1.64-4.63 1.77-.38.21-.39.23-.1.28 1.02.16 7.83-2.3 11.62-4.18a25 25 0 0 1 1.69-.8c.5 0-3.36 2.53-6 3.94-3.32 1.76-5.8 2.5-11.92 3.57-4 .7-5.2.98-3.58.85 2.73-.22 8.8-1.19 10.86-1.73.74-.2 1.37-.32 1.41-.27.14.14-1.15.65-2.56 1-3.51.89-10.21 1.72-11.6 1.45-.43-.09-.48-.13-.33-.32.25-.32 3.77-2.12 4.98-2.55a9.4 9.4 0 0 0 1.25-.5c.49-.33-.55-.1-2.04.44-2.65.98-2.84 1.04-2.94.94-.13-.14.97-1.3 1.5-1.58.93-.5 4.03-1.65 5.18-1.93.68-.16 2.9-.6 4.95-.95a41.95 41.95 0 0 0 8.03-2.06c1.39-.51 1.33-.5 1.07-.23m126.85.89c.2.03.51.03.68 0 .17-.04 0-.06-.38-.06-.37 0-.5.03-.3.06m-147.95 3.1a66.33 66.33 0 0 0-2.53 2.88c0 .33 2.02-1.76 3.87-4 1.26-1.53 1.35-1.65 1.26-1.65a69.9 69.9 0 0 0-2.6 2.78m20.7-1.4c-1.23 1.08-4.42 3-4.78 2.87-.09-.03.2-.29.65-.58a90.75 90.75 0 0 1 4.6-2.8c.06-.01-.16.22-.48.5m134.96 1.73c-.24.38-1 1.5-1.67 2.48-1.52 2.21-2.67 4.12-2.66 4.42 0 .3.4-.2 1.65-2.06 1.82-2.7 2.45-3.53 2.6-3.38.09.1.09.2 0 .33-.09.1-.86 1.52-1.72 3.16a42.4 42.4 0 0 1-3.96 6.49 42.93 42.93 0 0 1-4.91 5.22c-1.94 1.7-4.58 3.57-4.76 3.37-.07-.06.11-.22 2.8-2.46 2.8-2.3 5.06-4.86 6.12-6.86.28-.52.24-.5-.42.28a48.97 48.97 0 0 1-7.38 7.16 47.96 47.96 0 0 1-4.87 3.38l-.58.3.27-.32c.15-.18 1.07-.97 2.04-1.77 3.04-2.48 7.08-6.85 8.89-9.6.39-.6.68-1.08.65-1.08-.03 0-.56.6-1.18 1.32a86.6 86.6 0 0 1-9.3 9.38c-2.69 2.28-3.08 2.3-1 .07a92.24 92.24 0 0 0 4.88-5.73c1.11-1.45 1.12-1.46 1-1.46-.05 0-1.02.95-2.15 2.1-2.37 2.46-2.25 2.2.63-1.33 1.84-2.25 3.08-3.71 6.84-8.07.89-1.02.9-1.05.25-.48-.77.69-4.11 4.25-6.98 7.46a21.09 21.09 0 0 1-2.02 2.12c-.04-.04.31-.64.79-1.33a38.97 38.97 0 0 1 9.38-9.95 39.6 39.6 0 0 1 4.43-2.78c.13-.06-.4.54-1.18 1.31-3.7 3.67-6.99 7.23-6.7 7.23.08 0 1.62-1.52 3.43-3.37 3.23-3.29 4.09-4.09 4.09-3.82 0 .08-.56.8-1.24 1.62-2.25 2.7-1.81 2.39 1.25-.9a58.68 58.68 0 0 1 3.08-3.2c.03.03-.14.37-.39.75m15.17 14.28a63.19 63.19 0 0 1 2.78 6.88c.7 2.09.86 2.38.74 1.43a33.88 33.88 0 0 0-1.4-5.23 5.34 5.34 0 0 1-.35-1.13c.13-.14.53.41.97 1.34a59.9 59.9 0 0 1 4 13.1c.25 1.81.21 8.04-.07 10.7-.24 2.32-.82 5.94-1.03 6.3-.06.14-.14-2.93-.18-7.35-.06-7.99-.13-9.02-.78-11.44l-.26-1 .06 1.07c.03.6.13 1.66.22 2.36.22 1.76.25 17.6.04 17.82-.35.37-.82-3.72-1.48-12.88-.51-7.07-.76-9.04-1.6-12.66-.54-2.34-.63-1.9-.18.88.5 3.1.72 5.16 1.1 10.28.41 5.59.78 9.4 1.23 12.9.32 2.48.85 5.5 1.09 6.12.07.2.05.25-.1.2-.47-.16-1.86-3.83-2.55-6.77-.28-1.18-.7-4.06-.96-6.58-.57-5.43-.89-6.88-.75-3.37.09 2.4.44 6.7.6 7.48.17.78-.01.66-.37-.26-.56-1.45-1.1-5.82-1.39-11.37-.17-3.38-.17-10.12 0-9.93.08.08.29 1.62.47 3.43.24 2.45.32 3.01.33 2.21.03-1.55-.19-3.8-.8-8.56-.3-2.3-.54-4.36-.51-4.58.03-.3.16-.07.57 1.05.3.78.56 1.35.59 1.26.06-.21-.24-1.42-.99-3.98-.33-1.13-.6-2.13-.6-2.23 0-.5.66.57 1.56 2.5m-1.03 21.15c.27 4.11.69 7.17 1.25 9.2.16.55.62 1.9 1.03 3.01 1.03 2.76 1.26 3.5 1.12 3.5-.42 0-2.42-4.18-3.24-6.8-.3-.94-.64-2.32-.76-3.07-.3-1.87-.52-6.55-.45-9.5.06-2.34.42-7.19.61-8.24.06-.28.14 1.76.2 4.53.04 2.77.16 6.09.24 7.37m-9.91-6.5c0 .36-1.58 4.92-2.03 5.87a15.54 15.54 0 0 1-3.01 4.1c-.99.96-3.36 2.85-4.87 3.87-1.73 1.18-1.56.52.8-3.21a45.3 45.3 0 0 1 6.2-7.87c2.45-2.63 2.9-3.07 2.9-2.76m-15.84 1.46c-.07.08-1.17.73-2.44 1.44-3.54 2-3.38 2 .9 0 2.97-1.4 3.52-1.56 2.3-.68a134.66 134.66 0 0 1-8.72 5.41c-3.7 2.16-5.43 3.26-5.6 3.55-.2.33.23.13 2.05-.96 1.03-.62 3.13-1.85 4.66-2.74 1.53-.9 4-2.4 5.48-3.33a22.92 22.92 0 0 1 2.77-1.63c.05.05-.48.69-1.16 1.42-1.9 2.04-1.57 2 .77-.08.7-.62 1.3-1.09 1.35-1.04.12.12-2.52 2.9-4.05 4.25a22.93 22.93 0 0 1-5.19 3.58 56.13 56.13 0 0 1-6.7 2.2l-.54.09.34-.3c.19-.16 1.71-.95 3.4-1.75 3-1.43 5.1-2.57 5.73-3.12.63-.56-.1-.3-2.2.8-2.3 1.18-5.75 2.84-6.55 3.14-.45.17-.52.16-.52-.03 0-.17-.2-.1-.88.3-.49.29-.88.46-.88.38 0-.17 1.66-1.64 4.44-3.93 2.35-1.94 2.79-2.38 1.72-1.73a45.7 45.7 0 0 0-6.4 4.87c-.87.79-.7.34.35-.91a24.55 24.55 0 0 1 3.66-3.58c2.76-2.18 4.68-3.16 10.09-5.12 1.8-.66 2.04-.72 1.82-.5M30.73 166c-.52 1.3-.83 5.76-.6 8.62.08.99.3 2.35.47 3.04.25.96.29 1.25.15 1.25-.1 0-1.1-.42-2.24-.93-3.95-1.79-7.35-2.84-8.9-2.76-.97.05-1.1.34-.3.64 1 .35 3 1.85 5.63 4.16 3.66 3.23 5.97 5.88 12.34 14.14 4.03 5.23 6.5 8.2 9.82 11.83 1.66 1.82 1.9 2.12 1.74 2.12-.19 0-5.36-4.49-10.48-9.09-8.87-7.98-10.3-9-18.13-12.95a45.9 45.9 0 0 0-3.62-1.72c-.68 0 1.06 2.52 5.86 8.45 5.05 6.25 8.99 9.47 15.97 13.09 2.17 1.12 3.38 1.65 8.9 3.9a59 59 0 0 1 8.9 4.7c4 2.63 7.57 4.66 11.04 6.27 1.6.74 1.57.95-.14.95-4 0-7.9-.75-15.19-2.92-3.58-1.06-7-1.93-9.13-2.33-4.1-.76-8.8-.49-15.46.9a42.4 42.4 0 0 0-5.44 1.42c-.41.18-.48.26-.32.36.11.06 1.45.22 2.98.35 4.6.38 7.41 1.06 12.9 3.08 6.2 2.28 9.47 3.43 10.58 3.7 1.8.45 4.26.63 7.09.54 5.19-.17 9.16-1.19 13.31-3.41l2.1-1.12 2.93 1.13a144.79 144.79 0 0 0 22.9 6.6c3.43.65 3.85.82 2.98 1.22a50.3 50.3 0 0 1-4.94 1.65c-2.3.63-4.03.72-10.38.54-7.97-.22-11.6.06-15.19 1.18a98.8 98.8 0 0 0-4.81 1.78c-3.88 1.53-5.31 1.98-7.13 2.27-1.98.31-2.4.55-1.74 1 .82.57 7.98 3.2 10.5 3.86 2.63.7 4.63.98 7.34 1.05 3.77.1 6.56-.33 10.18-1.6 3.88-1.36 5.94-2.63 10.98-6.75 5.5-4.5 6.3-4.85 12-5.2 3.69-.23 5.78-.5 8.5-1.08 4.28-.93 9.94-2.34 12.03-3 1.22-.39 2.71-1.05 2.61-1.16a25.5 25.5 0 0 0-2.77.57c-5.46 1.28-8.9 1.98-9.25 1.88-.7-.18-3.65-3.6-5.5-6.37-2.27-3.38-2.85-5.16-3.3-10.23-.52-5.63-1.08-8.73-2.18-11.95-1.43-4.19-2.9-6.84-5.3-9.55-2.18-2.46-7.75-7.48-8.3-7.48-.22 0 .04.68.77 2 2.06 3.7 2.97 6.86 4.2 14.59.7 4.37 1.12 6.53 1.57 7.87.19.58.31 1.08.27 1.12a43.3 43.3 0 0 1-3.78-1.8 77.44 77.44 0 0 0-8.98-4.06c-4.15-1.6-4.54-1.74-4.8-1.62-.22.08-.16.18.37.7.82.78 2.25 2.5 4.4 5.31 5.16 6.72 7.57 9.02 12.78 12.26 1.72 1.06 2.95 1.76 7.95 4.49 5.37 2.92 8.02 4.58 8.02 5.02 0 .3-.42.46-1.74.69-2.3.39-5.64.55-9.54.46-6.15-.14-8.34-.64-12.37-2.83-5.16-2.8-7.58-6.51-9.99-15.32-1.6-5.9-3.06-9.05-5.33-11.58-2.1-2.35-10.2-8.78-11.2-8.9-.7-.08-.46 1.2.93 5.05a36.54 36.54 0 0 0 5.3 9.98 85 85 0 0 0 3.66 4.19c2.9 3.15 4.1 4.66 6.09 7.7 2.38 3.62 4.04 5.51 6.8 7.75 1.56 1.27 1.7 1.43 1.33 1.43-.5 0-3.66-.88-4.37-1.22-1.47-.71-3.5-3.24-7.56-9.44-5.37-8.2-7.8-10.97-12.86-14.64l-1.71-1.24-.1-1.8c-.28-5.72-.86-7.96-3.4-13.23a33.03 33.03 0 0 0-4.2-6.89c-1.34-1.68-5.21-5.92-5.4-5.92-.17 0-.12.18 1 3.3 2.08 5.8 2.55 7.29 4.8 15.02a54.46 54.46 0 0 0 1.48 4.47c.4 1 .68 1.83.62 1.83-.11 0-2.06-.9-4.62-2.15-2.74-1.33-3.8-1.68-3.8-1.24 0 .38 4.85 6.55 7.79 9.9a34.16 34.16 0 0 0 5.2 4.91c1.8 1.4 1.62 1.16 3.03 4.36a32.95 32.95 0 0 0 3.14 5.54c.6.9 1.05 1.66.98 1.68-.17.06-5.32-2.5-6.5-3.22-1.92-1.18-3.66-2.71-7.1-6.25-3.72-3.83-5.8-6.77-9.68-13.75a180.81 180.81 0 0 0-3.09-5.36c-1.22-1.98-1.65-2.91-1.66-3.58 0-1.4-1.13-5-2.06-6.61-.37-.66-1.68-2.77-2.9-4.7-2.74-4.33-3.26-5.38-4.15-8.32-1.02-3.35-1.17-3.6-1.58-2.6m.29 4.59c.05.6.16 1.43.24 1.82l.15.72.16-.64c.08-.36.19-.57.24-.48.06.09.32.83.59 1.64.92 2.8 2.87 7.56 3.1 7.56.13 0-.4-1.74-1.15-3.8a37.51 37.51 0 0 1-.81-2.37c0-.26.27.03 1.3 1.39.55.74 1.17 1.45 1.36 1.58.64.44 2.54 3.8 3.5 6.15.6 1.46.98 3.19.77 3.41-.34.34-1.66-1.9-2.1-3.56-.34-1.3-1.2-3.6-1.26-3.4-.04.1.16.96.44 1.9.76 2.59.55 2.58-2.06-.05-1.5-1.5-1.73-1.88-2.55-4.17-.34-.93-.68-1.77-.75-1.85-.27-.28-.15.83.24 2.32.22.8.35 1.45.3 1.45-.21 0-.83-.85-1.16-1.6-.62-1.42-.77-2.5-.84-6.04-.05-2.12-.03-3.24.05-3.18.08.04.18.58.23 1.2m151-.36-.88 1.4c-.42.66-1.46 2.4-2.3 3.86-2.8 4.83-3.97 6.45-6.55 9.1-1.61 1.64-2.52 2.44-2.64 2.31-.04-.04.22-.43.58-.87 3.04-3.72 4.05-5.06 4.87-6.46l.25-.43-.32.29a60.4 60.4 0 0 0-2.3 2.79c-2.67 3.38-4.16 5.09-5.7 6.55-1.52 1.42-5.98 4.97-6.1 4.84-.1-.1.63-1 4.02-4.95 1.53-1.77 4.46-5.25 6.52-7.73 3.58-4.31 8.36-9.59 8.52-9.41.05.04-.37.84-.93 1.78-.98 1.65-1.65 2.9-1.54 2.9.03 0 .56-.78 1.18-1.75 1.79-2.77 3-4.35 3.37-4.4.02 0 0 .08-.06.18m-6.17 3.74-2.96 2.87c-3.45 3.34-3.32 3.38.37.1a23.68 23.68 0 0 1 2.16-1.8c.08.08 0 .17-4.2 5.31a293.92 293.92 0 0 1-8.55 10.14l-.44.43.2-.43c.12-.24 1.08-1.81 2.15-3.5 1.06-1.7 2.08-3.34 2.26-3.66l.33-.57-.64.72c-.83.93-1.9 2.42-3.63 5.03-1.8 2.73-2.03 3.05-2.16 3.05-.34 0 2.1-4.27 3.87-6.77a53.87 53.87 0 0 1 7.61-8.6c1.11-.95 3.71-2.8 3.94-2.8.09 0-.05.21-.31.48m-123.74 2.88c.97 2.12 2.13 5.08 3.47 8.87a88.16 88.16 0 0 0 1.23 3.37c.23.42.12-.15-.34-1.75a66.07 66.07 0 0 0-2.96-8.46c-.22-.46-.37-.9-.34-1 .09-.3 2.1 3.04 4.1 6.88.59 1.12 1.1 2 1.13 1.97.1-.11-1.58-3.62-2.68-5.59-1.35-2.39-1.37-2.42-.82-1.79 3.88 4.51 7.71 14.99 6.93 18.93-.32 1.63-.9.97-3.46-3.87a7.26 7.26 0 0 0-.85-1.41c-.07.08.98 2.68 1.74 4.28.3.6.53 1.13.53 1.18 0 .2-.4.03-.7-.32-1.02-1.17-1.91-3.57-3.58-9.63a79.58 79.58 0 0 0-3.34-10.17A32.98 32.98 0 0 1 51 175.2c-.07-.47-.06-.48.15-.2.13.16.55 1 .95 1.86m-22.5 3.3c2.95 1.58 3.48 2 6.47 5.23 3.42 3.7 4.24 4.89 6.82 9.93 1.41 2.75 2.25 4.6 2.19 4.8-.03.1-.52-.47-1.09-1.25-1.7-2.33-1.96-2.31-.48.03.44.7 1.36 2.08 2.03 3.04.68.97 1.19 1.8 1.14 1.86-.21.22-2.6-2.7-8.1-9.9l-5.21-6.79a26.8 26.8 0 0 1-1.2-1.63c-.34-.66.47.13 2.72 2.66 3.12 3.5 4.5 4.93 4.15 4.27-.55-1.02-3.13-4-6.77-7.81-2.1-2.2-3.72-3.94-3.61-3.87.73.44 3.5 2.55 4.41 3.36a44.73 44.73 0 0 1 7.03 7.9c.9 1.24 1.66 2.26 1.69 2.26.29 0-2.84-4.46-4.88-6.94-1.8-2.22-3.23-3.42-8.52-7.2-1-.73-1.72-1.32-1.59-1.32.13 0 1.39.62 2.8 1.37m131.67 1.22c-.05.17-.15.22-2.34 1.07-1.61.62-3.4 1.47-3.32 1.56.04.04.67-.19 1.41-.5a9.31 9.31 0 0 1 1.63-.56c.25 0 .24.02-.07.27-.19.16-.92.62-1.63 1.03a54.76 54.76 0 0 0-7.23 5 27.37 27.37 0 0 1-3.27 2.38c-.18-.08.5-.79 3.53-3.7a37.43 37.43 0 0 0 1.94-1.93c0-.15-.82.46-2.37 1.76-1.57 1.31-2.04 1.52-1.44.63.97-1.44 4-3.76 6.73-5.17a15.93 15.93 0 0 1 4.62-1.71c1.47-.31 1.88-.34 1.81-.13m.55.94c-.1.13-.9.8-1.77 1.5-1.8 1.43-2.11 1.78-1 1.12 1.1-.66.96-.23-.24.7a30.23 30.23 0 0 1-4.7 2.98c-1.69.77-1.46.37.62-1.12 1.49-1.07 1.7-1.27 1.33-1.27-.28 0-1.17.53-3.5 2.05-1.6 1.05-2.16 1.29-1.73.75.43-.55 4.97-3.6 7.97-5.38 2.5-1.48 3.48-1.91 3.02-1.33m29 3.51a62.14 62.14 0 0 1-.98 8.63 70.5 70.5 0 0 0-.47 2.86l-.08.72.2-.53c.1-.29.42-1.42.7-2.5.27-1.09.55-2.04.62-2.12.45-.52-.29 4.53-1.1 7.47a64.49 64.49 0 0 1-3.91 9.62c-.72 1.34-.72.78 0-1.09 1.12-2.87 2.42-7.4 1.93-6.71-.1.14-.3.6-.42 1-1.25 4.04-6.65 16.69-7.13 16.69-.17 0-.2.13.49-2.36.92-3.36 2.99-9.83 4.55-14.25 2.4-6.81 4.23-12.61 4.04-12.82-.04-.03-.2.3-.35.76l-3.16 8.99c-3.2 9.1-3.72 10.67-5.16 15.6-.56 1.88-1.03 3.3-1.06 3.17-.16-.9.82-7.73 1.55-10.8.25-1.08.43-1.98.4-2.02-.11-.1-.64 1.3-1.03 2.74a56.34 56.34 0 0 0-1.27 6.48l-.18 1.43-.02-2.49c-.03-4.74.82-8.48 3.18-13.93 1.38-3.2 3.85-7.84 3.97-7.47.03.09-.81 2.53-1.86 5.43a97.86 97.86 0 0 0-1.85 5.32c.25.27 3.77-8.81 6.55-16.95.24-.7.59-.82.6-.22.01.22.22-.46.47-1.52.57-2.36.58-2.4.77-2.2.1.12.1.96 0 3.07m-168.97 1.85c2.9 1.39 3.7 1.83 5.18 2.85 2.38 1.65 5.16 3.98 9.31 7.8 1.13 1.03 3.16 2.86 4.52 4.06a59.96 59.96 0 0 1 2.48 2.26c0 .04-.18.03-.4-.03-.34-.07-.4-.05-.33.13.11.32-.06.28-.7-.13-.55-.36-.96-.47-.8-.21.19.33-.51.09-1.91-.66-1.59-.86-2.65-1.37-2.65-1.28 0 .2 3.15 2.07 7.37 4.39 3.08 1.7 3.6 2.02 3.4 2.1-.22.07-2.56-.88-5.44-2.22-5.72-2.67-9.92-5.42-13.57-8.88-1.34-1.27-3.62-3.77-3.52-3.87.02-.02.68.46 1.46 1.07 2.56 2.02 6.84 5.1 6.29 4.52l-3.2-2.72a108.3 108.3 0 0 1-7.6-6.96l-.75-.8.68.08c.94.13 2.86 1.38 6.45 4.21 2.26 1.79 2.53 1.93 1.5.8-1.64-1.8-4.5-3.94-7.84-5.9-1.03-.6-2.1-1.26-2.35-1.45l-.48-.35.4.1c.22.05 1.35.54 2.5 1.1m74.79.44c.6 1.02 1.81 3.66 2.48 5.43a30.7 30.7 0 0 1 1.57 6.7c.84 5.6 1.08 6.6 2.18 9.16.82 1.9.89 2.14.63 2.14-.53 0-2.1-3.45-3.23-7.08a31.95 31.95 0 0 0-.88-2.65c-.2 0 .67 3.57 1.44 5.9.3.91.54 1.73.54 1.82 0 .71-1.01-1.16-1.66-3.07-.45-1.32-.7-2.64-1.19-6.5-.23-1.78-.53-4-.68-4.94-.15-.94-.23-1.74-.2-1.78.14-.15.32.33.67 1.84.55 2.36.75 3.01.9 3.01.18 0 .07-.63-.44-2.72a37.53 37.53 0 0 0-1.96-5.75c-.64-1.5-.83-2.12-.65-2.12.06 0 .28.28.48.61m-73.4 2.54a103 103 0 0 0 7.2 6.1c4.18 3.25 9.8 7.2 10.24 7.2.04 0 .04-.09 0-.2-.1-.28.33-.3.7-.03.66.48 1.01.7 1.01.62 0-.15-7.05-5.53-9.1-6.95-1.42-.97-.3-.02 2.65 2.23 3.37 2.6 4.64 3.66 4.44 3.73-.55.2-7.92-5.27-14.43-10.7-3.28-2.73-3.88-3.17-2.72-2m34.94-.68c-.02.17 2.44 6.84 2.89 7.83l.42.93.05-.71c.1-1.44-.72-5.5-1.42-7.08-.51-1.14-.55-.66-.07.96.68 2.33 1.05 4.19.83 4.19-.06 0-.42-.82-.8-1.83-.7-1.82-1.88-4.5-1.9-4.3m41.84.87c.25.41.89 1.49 1.4 2.39 2.85 4.93 3.79 7.82 5 15.39.75 4.7.98 5.82.86 4.08-.2-2.78-1.11-9.18-1.63-11.33-.36-1.52-.4-1.83-.2-1.62.22.24.8 2.24 1.15 4 .7 3.5 1.28 9.27 1.1 10.8l-.09.78-.27-.35a37.21 37.21 0 0 1-2.45-5.43c-.29-.88-.46-1.25-.5-1.04-.02.18.32 1.42.75 2.75.43 1.34.73 2.48.68 2.54-.06.06-.4-.22-.76-.62-.5-.59-.78-1.1-1.27-2.44-1.2-3.2-1.4-4.06-2.27-9.63a40.36 40.36 0 0 0-1.64-7.28 15.56 15.56 0 0 1-.6-2.15c.15-.15 1.34 2.85 2.37 6 1.59 4.84 2.2 6.57 2.33 6.66.72.46-1.84-7.98-3.57-11.82-.94-2.07-1.08-2.44-.96-2.43.05 0 .3.34.56.75m76.05 1.4a76.52 76.52 0 0 1-9.13 7.91c-.9.68-1.7 1.31-1.74 1.4-.15.24 1.42-.64 3.08-1.75a49.16 49.16 0 0 0 4.6-3.42c.63-.52 1.33-1.07 1.55-1.22.39-.27.4-.27.24.02-.08.16-.9 1.06-1.82 2-2.63 2.68-4.42 3.87-11.71 7.82a108.4 108.4 0 0 0-7.62 4.32 4 4 0 0 1-1 .52c-.35 0 .2-.53 1.8-1.71a45.47 45.47 0 0 1 5.81-3.66c2.3-1.28 2.95-1.7 2.8-1.86a42.66 42.66 0 0 0-11.62 7.6 6.16 6.16 0 0 1-1.21 1.01c-.1-.1 1.62-2.13 2.67-3.15 2.93-2.86 6.05-5.03 11.24-7.83 1.51-.81 2.72-1.5 2.7-1.53-.22-.23-7.1 3.36-9.23 4.82a6.8 6.8 0 0 1-1.4.83c-.16-.17 3.19-2.62 5.91-4.31 1.32-.83 3.23-1.9 9.26-5.27l1.02-.56-1.1 1.07a4.7 4.7 0 0 0-.99 1.16c.1.1 3.53-2.6 5.55-4.34a9.6 9.6 0 0 1 1.3-1.01c.06 0-.36.5-.96 1.15m-72.95 1.91c.83 1.4 1.61 3.05 1.5 3.17-.1.1-.52-.55-1.78-2.84l-1.38-2.49c-.57-1.01.96.98 1.66 2.16m-59.58.4c.25.41 1.09 1.94 1.87 3.4 2.58 4.86 3.73 6.72 5.94 9.62.71.93 1.26 1.72 1.23 1.76-.21.22-3.6-4.03-4.84-6.06-1.35-2.22-4.42-8.2-4.7-9.15-.16-.52.01-.38.5.43m24.15 1.57a91.85 91.85 0 0 0 3.48 6.27c.83 1.31 1.55 2.2 1.55 1.9 0-.07-.4-.8-.9-1.63-1.7-2.82-3.92-7.15-3.83-7.46.04-.13 5.64 7.34 8.55 11.4a39.06 39.06 0 0 1 3.14 5.2c1.15 2.34 1.06 2.73-.2.77-1.47-2.3-5.54-7.32-5.54-6.83 0 .2.66 1.34 1.6 2.77.48.73.85 1.36.82 1.4-.1.1-3.56-3.86-4.54-5.19a36.6 36.6 0 0 1-3.57-6.34c-1.18-2.5-1.73-3.87-1.53-3.87.06 0 .5.73.97 1.61m3.05-.23a62.2 62.2 0 0 1 5.67 5.93c1.67 2.21 2.64 4.35 3.78 8.33.3 1.05.54 2 .54 2.12 0 .11-.77-1.4-1.71-3.38-1.91-4-3.06-6.12-3.88-7.13-1.04-1.28-.81-.66.83 2.27.99 1.76 1.2 2.35.69 1.86a34.8 34.8 0 0 1-1.8-2.35c-.84-1.15-2.23-3.03-3.1-4.18-1.48-2-2.14-2.99-1.97-2.99.04 0 .64.55 1.33 1.23 1.29 1.25 2.01 1.82 1.6 1.26a70 70 0 0 0-1.66-1.95c-.8-.92-1.47-1.71-1.47-1.75 0-.2.3-.01 1.15.73m-15.18 4.22c3.12 3.52 5.05 5.35 6.76 6.4 1.43.86 1.77.87.62.02a43.52 43.52 0 0 1-7.2-7.06c-1.15-1.58-.78-1.34 4.4 2.92a268.4 268.4 0 0 1 11.02 9.31c1.3 1.25 3 3.13 2.83 3.13-.06 0-1.34-1-2.84-2.24-2.82-2.33-4.58-3.62-4.91-3.62-.33 0 .05.43 1.56 1.78a8.25 8.25 0 0 1 1.32 1.33c-.16.18-5.32-3.36-7.54-5.17a56.28 56.28 0 0 1-8.75-9.68l-.66-.93.58.64 2.81 3.17m2.25-1.79a56.76 56.76 0 0 1 8.7 6.05c1.61 1.47 4.92 5 4.8 5.12-.07.08-1.74-1.4-2.13-1.88a15.83 15.83 0 0 0-2.3-2.1c0 .07 1.16 1.44 2.6 3.02a46.71 46.71 0 0 1 2.54 2.94c-.04.03-.48-.33-1-.81-1.36-1.25-3.6-3.13-7.34-6.13-4.31-3.47-6.18-5.05-6.18-5.2 0-.16.75.3 3.46 2.13 1.2.8 2.4 1.57 2.65 1.7l.48.26-.4-.46c-.51-.57-2.3-1.9-4.55-3.36-1.83-1.2-2.45-1.65-2.2-1.65.09 0 .48.17.87.37m32.8 6.37c2.23 1.02 6.35 3.19 8.1 4.26 1.76 1.08 3.12 2.3 6.16 5.51 2.35 2.5 3.8 4.2 3.67 4.35a4.1 4.1 0 0 1-1.02-.88 8.02 8.02 0 0 0-1.03-.95c-.1 0 .96 1.38 1.17 1.51.06.05.12.18.12.3 0 .32-.29.1-2.3-1.74a133.42 133.42 0 0 0-15.6-12.15 10.3 10.3 0 0 1-1.26-.88c0-.18.55 0 2 .67m-1.07.77c4.9 3.09 9.71 6.86 16.06 12.6 3.63 3.28 6.7 6.37 6.5 6.57-.03.03-2.1-1.37-4.6-3.12-4.8-3.33-5.93-4.06-5.58-3.61.28.36 3.43 2.82 5.34 4.17.88.62 1.6 1.18 1.6 1.24 0 .14-.24.02-3.13-1.65-7.34-4.23-10.81-6.76-14-10.2-1.46-1.58-5.33-6.5-5.21-6.63.02-.03.92.84 1.99 1.93 3 3.08 7.37 6.9 10.01 8.76.87.6 1.1.7 1.1.47 0-.15-1.57-1.54-3.22-2.85-2.46-1.96-7.67-6.83-8.76-8.2-.82-1.03-.38-.91 1.9.52m78.08 2.68a329.63 329.63 0 0 1-14.22 14.25 40.25 40.25 0 0 0-2.68 2.64c0 .53 6.16-5.34 13.31-12.7 4.23-4.34 5.25-5.33 5.39-5.19.2.22-1.09 2.3-2.76 4.47-1 1.3-1.16 1.56-.79 1.41.11-.04.2-.03.2.03 0 .38-3.81 5.11-5.26 6.52-1.3 1.27-5.4 4.09-7.75 5.33-1.07.58-1.43.66-1.3.3.06-.17-.12-.12-.72.2-.44.23-.88.39-.97.35-.24-.09-.2-.47.06-.78.37-.43.09-.47-.43-.06-.26.22-.48.32-.48.23 0-.47 3.25-4.84 4.77-6.43 2.11-2.19 8.67-7.66 8.9-7.42.04.04-.4.61-.99 1.27-.86.97-.47.65 2.13-1.75 3.5-3.22 4.63-4.18 4.73-4.07.04.04-.47.67-1.14 1.4m-100.77 3.76c4.05 2.45 7.11 4.6 8.85 6.2 3.13 2.9 6.8 6.79 6.62 6.99-.16.16-6.8-2.16-9.06-3.16-2.74-1.22-3.88-2.56-6.72-7.93-1.15-2.19-1.52-3.03-1.33-3.03.06 0 .8.42 1.64.93m34.06-.12c2.24 2.36 4.82 4.92 4.97 4.92.24 0-2.02-2.4-3.68-3.92-1.55-1.41-2.03-1.78-1.3-1m63.87 2.23-.4.47.45-.42c.41-.4.5-.51.4-.51-.03 0-.23.2-.45.46m-122.64 3.2c2.54.39 7.62 1.73 11.58 3.06 3.04 1.03 2.16 1-2-.07a45.74 45.74 0 0 0-8.5-1.58c-.55-.05-.98-.05-.94 0 .14.13 11.1 2.59 14.47 3.23 1.85.35 2.22.54 1.61.81-.31.14.35.18 3.76.19 4.84 0 5.48.14 3.37.73-2.3.64-6.01.97-10.97.98-1.08 0-1.93.04-1.9.07.15.16 2.68.53 4.32.63 1.67.1 2.08.19 1.88.4-.25.26-3.6.38-6.5.22-3.64-.2-4.05-.29-9.02-2.1a351.08 351.08 0 0 0-10.59-3.72c-1.62-.5-1.42-.76.34-.44 1.96.36 4.05.98 8.2 2.44 3.77 1.32 5.96 1.96 7.41 2.15 1.02.13.76-.1-.54-.5-3.66-1.12-11.18-3.84-11.47-4.16-.2-.22.3-.12 4.13.82 8.42 2.06 9.54 2.3 11.53 2.4l1.31.08-.88-.23c-12.82-3.27-14.18-3.57-16.5-3.73-1.48-.1-1.98-.25-1.72-.53.1-.1.98-.19 2.43-.24l2.27-.07-.82-.2c-.61-.16-1.69-.2-4.4-.18-3.76.03-4.43-.1-2.07-.4 3.4-.44 7.5-.46 10.21-.06m118.3.79a61 61 0 0 1-5.75 4.81c-.93.7-1.88 1.44-2.11 1.66l-.43.4.48-.24c1.5-.77 7.75-5.9 8.35-6.87.34-.54.06-.42-.54.24m-6.79 2.45c-2.58 2.74-3.53 3.89-2.97 3.57.92-.52 6.12-6.32 5.67-6.32-.06 0-1.27 1.23-2.7 2.75m-4.42 5.4c0 .24-1.05 1.37-1.16 1.26-.1-.11.15-.57.61-1.08.3-.34.55-.42.55-.17m-66.35 8.53c.91.05 1.66.14 1.66.19 0 .05-.41.23-.91.4l-.92.3 1.36-.08c.74-.04 2.06-.16 2.92-.25 1.49-.17 1.76-.17 1.6 0-.1.1-3.21.81-6.54 1.49-3.02.61-4 .94-2.33.8 1.2-.11 5.66-.83 8.12-1.3 2.6-.51 3.03-.42 1.12.25-4.61 1.6-11.86 3.05-18.96 3.78-2.44.25-7.77.35-7.96.16-.26-.27.36-.41 3.28-.75a233.5 233.5 0 0 0 9.97-1.39c1.42-.25.66-.4-1.29-.25-.96.08-3.85.37-6.4.64-4.6.5-6.57.6-6.16.37.25-.16 3.93-.85 11.38-2.16 3.16-.56 5.88-1.07 6.05-1.14.3-.13.3-.13-.06-.14-.55-.02-10.6 1.45-13.3 1.93-1.54.28 2.05-1.17 4.8-1.93 3.87-1.08 6.3-1.26 12.57-.92m11.31.5a52.02 52.02 0 0 1-10.43 4.83l-2.77.88c-.75.24-1.34.48-1.3.52.24.25 6.54-1.26 8.2-1.95 2.02-.86 1.48-.27-.92 1-5.88 3.1-11.43 4.25-16.92 3.5-2.66-.37-7-1.46-7.2-1.81-.07-.11.02-.13.3-.06.56.16 9.21.28 10.92.15 2.65-.19 1.09-.36-4.49-.5-5.35-.13-6.65-.21-7.05-.43-.3-.17.9-.26 4.41-.34 4.42-.11 8.46-.6 13.25-1.6 4.98-1.05 9.6-2.47 12.45-3.84a8.53 8.53 0 0 1 1.62-.64c.25 0 .24.02-.07.3"/><text x="90.3" y="136.65" fill="#0736c0" stroke-width=".26" font-family="Bodoni 72 Oldstyle" font-size="50.8" font-weight="700" style="line-height:66.04px;white-space:pre" text-anchor="middle" transform="matrix(2.88087 0 0 2.53846 -154.44 -171.22)">N</text></g></svg>